<svg width="40" height="40" viewBox="0 0 40 40" fill="none" xmlns="http://www.w3.org/2000/svg">
  <rect width="40" height="40" rx="8" fill="url(#gradient)" />
  <path d="M12 20c0-4.4 3.6-8 8-8s8 3.6 8 8-3.6 8-8 8-8-3.6-8-8z" fill="white" opacity="0.9"/>
  <path d="M16 20c0-2.2 1.8-4 4-4s4 1.8 4 4-1.8 4-4 4-4-1.8-4-4z" fill="white"/>
  <circle cx="20" cy="16" r="2" fill="url(#gradient)"/>
  <path d="M10 30c2-8 6-10 10-10s8 2 10 10" stroke="white" stroke-width="2" fill="none" opacity="0.8"/>
  <defs>
    <linearGradient id="gradient" x1="0%" y1="0%" x2="100%" y2="100%">
      <stop offset="0%" style="stop-color:#0EA5E9"/>
      <stop offset="50%" style="stop-color:#0284C7"/>
      <stop offset="100%" style="stop-color:#0369A1"/>
    </linearGradient>
  </defs>
</svg>